<svg xmlns="http://www.w3.org/2000/svg" id="SvgjsSvg6139" width="300" height="138.21228258795966" version="1.1" xmlns:xlink="http://www.w3.org/1999/xlink" xmlns:svgjs="http://svgjs.com/svgjs"><defs id="SvgjsDefs6140"></defs><g id="SvgjsG6141" transform="scale(0.9161144532323571)" opacity="1"><g id="SvgjsG6142" class="rJoCO2xjG" transform="translate(108.30811337855621, -0.3900567839983344) scale(1.1143994736603295)" light-content="false" fill="#c7280f"><path d="M93.786 22.714l-.012-.076a3.004 3.004 0 0 0-.073-.336l-.015-.06a2.982 2.982 0 0 0-.171-.438 3.228 3.228 0 0 0-.086-.178c-.019-.032-.041-.062-.06-.094l-.058-.093a2.981 2.981 0 0 0-.209-.285c-.006-.008-.011-.016-.018-.022a3.365 3.365 0 0 0-.274-.285l-.056-.048a3.334 3.334 0 0 0-.271-.21c-.019-.012-.035-.025-.053-.037a2.896 2.896 0 0 0-.343-.196l-.021-.012L51.07.653a3.086 3.086 0 0 0-2.667 0L7.406 20.343l-.023.013a3.424 3.424 0 0 0-.338.193c-.021.013-.041.028-.061.042a2.95 2.95 0 0 0-.261.203l-.063.055a3.11 3.11 0 0 0-.271.279c-.01.011-.018.024-.027.036a2.963 2.963 0 0 0-.261.374c-.018.03-.039.058-.056.088-.031.055-.056.112-.083.168l-.042.085a3.108 3.108 0 0 0-.132.359l-.018.07c-.03.108-.053.216-.07.325-.005.028-.01.055-.013.083a2.944 2.944 0 0 0-.028.397V73.77c0 1.119.607 2.15 1.587 2.694L48.242 99.2a3.09 3.09 0 0 0 2.989 0l40.997-22.734a3.083 3.083 0 0 0 1.587-2.694V23.117c0-.135-.01-.269-.029-.403zM49.737 92.981L11.821 71.956V28.354l20.112 11.153a3.081 3.081 0 0 0 2.99-5.39l-19.474-10.8L49.737 6.85l34.289 16.468-19.473 10.798a3.08 3.08 0 0 0-1.201 4.189 3.076 3.076 0 0 0 4.188 1.201l20.112-11.152v43.602L49.737 92.981z"></path><path d="M52.84 50.581a.617.617 0 0 0-.744-.413 9.43 9.43 0 0 1-4.751-.009.618.618 0 0 0-.746.412L37.947 78.23a.615.615 0 0 0 .179.643l11.184 9.935a.614.614 0 0 0 .818.001l11.222-9.935a.614.614 0 0 0 .178-.645L52.84 50.581zM41.634 38.822l5.072 8.696a.62.62 0 0 0 .375.286c.17.044.34.094.511.142.671.193 1.366.392 2.145.392.751 0 1.419-.193 2.065-.38.183-.052.366-.106.55-.153a.617.617 0 0 0 .385-.301l4.771-8.727c.165-.348.315-1.145-.176-1.924-.892-1.412-3.446-2.128-7.595-2.128-4.19 0-6.82.724-7.82 2.15-.641.917-.363 1.755-.33 1.849a.976.976 0 0 0 .047.098z"></path></g><g id="SvgjsG6143" class="text" transform="translate(-0.7800000000000011, 144.39792059693053)" light-content="false" fill="#0a0a0a"><path d="M13.83-16.95C12.48-17.40 10.85-17.63 8.94-17.63L7.28-17.60C7.02-17.58 6.66-17.58 6.21-17.58C3.82-17.58 2.01-17.60 0.78-17.65C0.78-16.79 0.84-16.11 0.96-15.63C1.48-15.56 1.86-15.45 2.09-15.30C2.33-15.15 2.49-14.89 2.57-14.52C2.66-14.15 2.70-13.56 2.70-12.77L2.70-4.86C2.70-4.05 2.66-3.45 2.56-3.06C2.47-2.67 2.30-2.39 2.07-2.24C1.83-2.08 1.47-1.98 0.99-1.95C0.85-1.43 0.78-0.75 0.78 0.08C1.79 0.06 3.07 0.04 4.63 0.03C6.19 0.01 7.58 0 8.81 0C10.08 0 11.42-0.22 12.83-0.65C14.24-1.08 15.51-1.98 16.63-3.35C17.75-4.72 18.30-6.68 18.30-9.23C18.30-11.47 17.90-13.20 17.08-14.43C16.27-15.66 15.18-16.50 13.83-16.95ZM12.03-3.33C11.34-2.41 10.64-1.95 9.93-1.95C9.39-1.95 8.98-2.04 8.70-2.21C8.41-2.38 8.21-2.69 8.09-3.12C7.96-3.55 7.90-4.18 7.90-4.99L7.90-15.47C8.22-15.61 8.56-15.68 8.94-15.68C11.68-15.68 13.05-13.37 13.05-8.76C13.05-6.06 12.71-4.25 12.03-3.33ZM37.60 0.08C37.60-0.81 37.53-1.48 37.39-1.95C37.11-1.98 36.88-2.08 36.70-2.22C36.52-2.37 36.30-2.66 36.06-3.08C35.82-3.51 35.49-4.17 35.07-5.07L29.30-17.73C28.94-17.73 28.60-17.72 28.28-17.71C27.95-17.69 27.64-17.65 27.33-17.58L21.81-4.58C21.38-3.59 21.03-2.93 20.76-2.59C20.49-2.25 20.15-2.04 19.73-1.95C19.56-1.41 19.47-0.74 19.47 0.08C19.99 0.03 20.83 0 21.97 0C23.41 0 24.42 0.03 25.01 0.08C25.01-0.68 24.94-1.36 24.80-1.95C24.42-2.02 24.14-2.18 23.96-2.42C23.78-2.66 23.69-2.95 23.69-3.28C23.69-3.50 23.73-3.73 23.82-3.95L23.87-4.06C25.53-4.23 27.50-4.32 29.77-4.32L29.95-3.93C30.14-3.49 30.24-3.15 30.24-2.91C30.24-2.67 30.15-2.47 29.98-2.31C29.80-2.16 29.53-2.04 29.15-1.95C29.01-1.40 28.94-0.72 28.94 0.08C29.60 0.03 31.12 0 33.51 0C35.54 0 36.90 0.03 37.60 0.08ZM29.04-6.01L24.62-6.01L25.48-8.22C26.00-9.48 26.42-10.68 26.73-11.80C27.04-10.68 27.48-9.48 28.05-8.22ZM55.13-2.41C54.88-2.62 54.58-3.07 54.24-3.74C53.79-4.66 53.43-5.35 53.16-5.80C52.89-6.25 52.62-6.60 52.35-6.84C52.08-7.08 51.74-7.28 51.32-7.44C52.43-7.73 53.32-8.34 53.98-9.26C54.63-10.17 54.96-11.36 54.96-12.82C54.96-13.74 54.73-14.56 54.26-15.30C53.79-16.04 53.07-16.62 52.10-17.06C51.13-17.49 49.93-17.71 48.49-17.71C48.14-17.71 46.90-17.68 44.77-17.63L43.11-17.58C41.51-17.58 40.02-17.61 38.64-17.68C38.64-17.42 38.65-17.08 38.69-16.65C38.72-16.23 38.77-15.90 38.82-15.68C39.34-15.61 39.72-15.50 39.95-15.35C40.18-15.21 40.34-14.95 40.43-14.57C40.52-14.20 40.56-13.62 40.56-12.82L40.56-4.86C40.56-4.05 40.51-3.45 40.42-3.06C40.32-2.67 40.16-2.39 39.92-2.24C39.69-2.08 39.33-1.98 38.84-1.95C38.71-1.43 38.64-0.75 38.64 0.08C39.83 0.03 41.18 0 42.67 0C44.71 0 46.23 0.03 47.22 0.08C47.22-0.93 47.16-1.60 47.03-1.95C46.69-1.97 46.43-2.05 46.25-2.18C46.08-2.32 45.96-2.61 45.88-3.06C45.80-3.50 45.76-4.19 45.76-5.12L45.76-6.76C45.99-6.74 46.31-6.73 46.72-6.73C47.12-6.47 47.45-6.13 47.71-5.71C47.97-5.28 48.26-4.63 48.59-3.74L48.93-2.83C49.57-1.19 49.98-0.16 50.15 0.23C51.19 0.08 53.14 0 55.98 0C56.17-0.66 56.26-1.33 56.26-2.03C55.76-2.06 55.38-2.19 55.13-2.41ZM48.65-9.66C48.06-9.06 47.35-8.76 46.54-8.76C46.37-8.76 46.11-8.80 45.76-8.87L45.76-15.55C46.11-15.67 46.47-15.73 46.85-15.73C47.67-15.73 48.32-15.42 48.80-14.79C49.29-14.17 49.53-13.30 49.53-12.19C49.53-11.10 49.24-10.26 48.65-9.66ZM73.09-8.29C72.29-9.07 71.00-9.52 69.21-9.62C70.53-9.81 71.55-10.27 72.27-10.99C72.99-11.70 73.35-12.58 73.35-13.60C73.35-14.52 73.12-15.27 72.67-15.85C72.22-16.43 71.46-16.87 70.40-17.17C69.33-17.48 67.89-17.63 66.07-17.63L62.97-17.60C62.23-17.58 61.27-17.58 60.11-17.58C58.88-17.58 57.95-17.60 57.30-17.65C57.30-16.79 57.36-16.11 57.49-15.63C58.01-15.56 58.38-15.45 58.62-15.30C58.85-15.15 59.01-14.89 59.10-14.52C59.18-14.15 59.23-13.56 59.23-12.77L59.23-4.86C59.23-4.05 59.18-3.45 59.09-3.06C58.99-2.67 58.83-2.39 58.59-2.24C58.36-2.08 58.00-1.98 57.51-1.95C57.37-1.43 57.30-0.75 57.30 0.08C59.99 0.03 62.91 0 66.07 0C71.54 0 74.28-1.68 74.28-5.04C74.28-6.43 73.88-7.51 73.09-8.29ZM67.46-14.89C67.92-14.39 68.15-13.73 68.15-12.90C68.15-11.96 67.90-11.24 67.41-10.74C66.91-10.24 66.23-9.98 65.36-9.98L64.43-9.98L64.43-15.39C64.79-15.55 65.20-15.63 65.65-15.63C66.40-15.63 67.00-15.38 67.46-14.89ZM67.89-2.68C67.44-2.18 66.88-1.92 66.22-1.92C65.65-1.92 65.21-2.11 64.90-2.48C64.58-2.86 64.43-3.57 64.43-4.63L64.43-8.03L65.08-8.03C66.27-8.03 67.15-7.79 67.72-7.29C68.28-6.80 68.56-5.95 68.56-4.76C68.56-3.87 68.34-3.18 67.89-2.68ZM90.22-3.42C90.45-4.36 90.56-5.62 90.56-7.20L90.56-12.38C90.56-13.21 90.60-13.84 90.69-14.27C90.77-14.71 90.94-15.02 91.17-15.22C91.40-15.42 91.75-15.56 92.20-15.63C92.33-16.13 92.40-16.80 92.40-17.65C91.76-17.60 90.84-17.58 89.62-17.58C88.39-17.58 87.42-17.60 86.71-17.65C86.71-17.01 86.76-16.34 86.87-15.63C87.32-15.54 87.66-15.39 87.91-15.17C88.15-14.95 88.32-14.61 88.43-14.14C88.53-13.68 88.58-13.01 88.58-12.14L88.58-7.46C88.58-6.20 88.52-5.23 88.40-4.55C88.28-3.87 88.10-3.35 87.85-2.99C87.59-2.61 87.26-2.33 86.87-2.15C86.47-1.96 86.05-1.87 85.62-1.87C84.65-1.87 83.92-2.27 83.43-3.06C82.95-3.84 82.71-5.04 82.71-6.66L82.71-12.64C82.71-13.47 82.75-14.07 82.84-14.46C82.92-14.84 83.07-15.11 83.29-15.26C83.51-15.42 83.87-15.54 84.37-15.63C84.47-16.11 84.53-16.79 84.53-17.65C83.69-17.60 81.89-17.58 79.12-17.58C77.47-17.58 76.29-17.60 75.58-17.65C75.58-16.89 75.65-16.22 75.79-15.63C76.29-15.54 76.66-15.42 76.88-15.26C77.11-15.11 77.27-14.83 77.36-14.44C77.46-14.05 77.51-13.45 77.51-12.64L77.51-6.21C77.51-4.65 77.72-3.41 78.14-2.48C78.57-1.56 79.28-0.87 80.29-0.43C81.29 0.01 82.66 0.23 84.40 0.23C86.48 0.23 88.01-0.23 89.00-1.14C89.59-1.72 89.99-2.47 90.22-3.42ZM98.28-0.90C99.63-0.14 101.23 0.23 103.06 0.23C104.87 0.23 106.45-0.16 107.81-0.95C109.17-1.74 110.22-2.85 110.96-4.28C111.69-5.71 112.06-7.35 112.06-9.20C112.06-10.92 111.69-12.43 110.94-13.73C110.20-15.03 109.15-16.03 107.80-16.74C106.44-17.45 104.87-17.81 103.06-17.81C101.31-17.81 99.76-17.45 98.41-16.72C97.06-15.99 96.00-14.95 95.24-13.61C94.48-12.27 94.09-10.69 94.09-8.87C94.09-7.06 94.45-5.47 95.17-4.10C95.89-2.72 96.93-1.65 98.28-0.90ZM105.85-3.64C105.26-2.41 104.43-1.79 103.38-1.79C102.08-1.79 101.09-2.52 100.43-3.97C99.76-5.41 99.42-7.25 99.42-9.49C99.42-11.54 99.71-13.11 100.28-14.21C100.85-15.31 101.67-15.86 102.73-15.86C103.54-15.86 104.25-15.54 104.86-14.90C105.46-14.26 105.93-13.39 106.25-12.30C106.57-11.21 106.73-9.99 106.73-8.66C106.73-6.54 106.44-4.87 105.85-3.64ZM124.85-15.63L125.37-15.63C126.24-15.63 126.88-15.37 127.31-14.86C127.73-14.35 128.07-13.49 128.31-12.30C129.44-12.30 130.34-12.44 131.01-12.71C130.82-13.49 130.67-14.33 130.56-15.22C130.45-16.12 130.39-16.93 130.39-17.65C128.22-17.60 125.56-17.58 122.41-17.58C118.44-17.58 115.73-17.60 114.27-17.65C114.27-16.94 114.21-16.12 114.09-15.17C113.97-14.23 113.81-13.40 113.62-12.69C114.17-12.43 115.07-12.30 116.30-12.30C116.59-13.48 116.99-14.33 117.48-14.85C117.98-15.37 118.68-15.63 119.60-15.63L119.65-15.63L119.65-4.86C119.65-4.05 119.57-3.45 119.42-3.06C119.26-2.67 118.99-2.39 118.61-2.24C118.23-2.08 117.66-1.98 116.90-1.95C116.81-1.69 116.74-1.36 116.68-0.96C116.61-0.56 116.58-0.22 116.58 0.08C117.73 0.03 119.73 0 122.59 0C125.00 0 126.69 0.03 127.66 0.08C127.66-0.82 127.57-1.50 127.40-1.95C126.65-1.98 126.11-2.08 125.76-2.24C125.42-2.39 125.18-2.66 125.05-3.04C124.92-3.42 124.85-4.03 124.85-4.86ZM136.76-0.90C138.11-0.14 139.71 0.23 141.54 0.23C143.35 0.23 144.93-0.16 146.29-0.95C147.65-1.74 148.70-2.85 149.44-4.28C150.17-5.71 150.54-7.35 150.54-9.20C150.54-10.92 150.17-12.43 149.42-13.73C148.68-15.03 147.63-16.03 146.28-16.74C144.92-17.45 143.35-17.81 141.54-17.81C139.79-17.81 138.24-17.45 136.89-16.72C135.54-15.99 134.48-14.95 133.72-13.61C132.96-12.27 132.57-10.69 132.57-8.87C132.57-7.06 132.93-5.47 133.65-4.10C134.37-2.72 135.41-1.65 136.76-0.90ZM144.33-3.64C143.74-2.41 142.91-1.79 141.86-1.79C140.56-1.79 139.57-2.52 138.91-3.97C138.24-5.41 137.90-7.25 137.90-9.49C137.90-11.54 138.19-13.11 138.76-14.21C139.33-15.31 140.15-15.86 141.21-15.86C142.02-15.86 142.73-15.54 143.34-14.90C143.94-14.26 144.41-13.39 144.73-12.30C145.05-11.21 145.21-9.99 145.21-8.66C145.21-6.54 144.92-4.87 144.33-3.64ZM158.43 0.90C158.79-0.29 158.96-1.76 158.96-3.51L158.96-12.69C158.96-13.49 159.00-14.07 159.07-14.44C159.14-14.82 159.29-15.10 159.52-15.29C159.76-15.48 160.13-15.59 160.65-15.63C160.81-16.11 160.89-16.79 160.89-17.65C160.11-17.60 158.60-17.58 156.36-17.58C154.08-17.58 152.57-17.60 151.84-17.65C151.84-16.82 151.92-16.15 152.07-15.63C152.58-15.57 152.94-15.47 153.17-15.33C153.39-15.18 153.55-14.92 153.63-14.53C153.72-14.15 153.76-13.54 153.76-12.69L153.76-1.61C153.76-0.42 153.67 0.55 153.49 1.30C153.31 2.05 153.03 2.66 152.65 3.15C152.26 3.63 151.74 4.10 151.06 4.55C151.15 5.42 151.47 6.06 152.02 6.47C153.93 5.78 155.38 4.97 156.39 4.06C157.40 3.14 158.08 2.08 158.43 0.90ZM179.01-17.65C178.37-17.60 177.44-17.58 176.23-17.58C175.00-17.58 174.03-17.60 173.32-17.65C173.32-17.01 173.37-16.34 173.47-15.63C173.92-15.54 174.27-15.39 174.51-15.17C174.75-14.95 174.93-14.61 175.03-14.14C175.14-13.68 175.19-13.01 175.19-12.14L175.19-7.46C175.19-6.20 175.13-5.23 175.01-4.55C174.88-3.87 174.70-3.35 174.46-2.99C174.20-2.61 173.87-2.33 173.47-2.15C173.07-1.96 172.66-1.87 172.22-1.87C171.25-1.87 170.53-2.27 170.04-3.06C169.55-3.84 169.31-5.04 169.31-6.66L169.31-12.64C169.31-13.47 169.36-14.07 169.44-14.46C169.53-14.84 169.68-15.11 169.90-15.26C170.11-15.42 170.47-15.54 170.98-15.63C171.08-16.11 171.13-16.79 171.13-17.65C170.30-17.60 168.50-17.58 165.72-17.58C164.08-17.58 162.90-17.60 162.19-17.65C162.19-16.89 162.26-16.22 162.40-15.63C162.90-15.54 163.26-15.42 163.49-15.26C163.71-15.11 163.87-14.83 163.97-14.44C164.06-14.05 164.11-13.45 164.11-12.64L164.11-6.21C164.11-4.65 164.32-3.41 164.75-2.48C165.17-1.56 165.89-0.87 166.89-0.43C167.90 0.01 169.27 0.23 171.00 0.23L171.26 0.23C170.17 0.70 169.44 1.18 169.06 1.66C168.69 2.15 168.51 2.69 168.51 3.28C168.51 4.00 168.68 4.61 169.04 5.08C169.39 5.56 169.84 5.91 170.38 6.14C170.92 6.36 171.44 6.47 171.96 6.47C172.19 6.47 172.39 6.47 172.56 6.45C173.00 6.24 173.52 6.05 174.15 5.86C174.77 5.68 175.40 5.55 176.05 5.46C176.06 5.39 176.07 5.28 176.07 5.12C176.07 4.79 176.02 4.43 175.93 4.04C175.83 3.65 175.73 3.38 175.60 3.22C175.34 3.28 175.05 3.30 174.72 3.30C173.40 3.30 172.74 2.86 172.74 1.98C172.74 1.09 173.42 0.25 174.77-0.55C175.03-0.67 175.31-0.87 175.60-1.14C176.19-1.72 176.60-2.47 176.83-3.42C177.05-4.36 177.16-5.62 177.16-7.20L177.16-12.38C177.16-13.21 177.21-13.84 177.29-14.27C177.38-14.71 177.54-15.02 177.78-15.22C178.01-15.42 178.35-15.56 178.80-15.63C178.94-16.13 179.01-16.80 179.01-17.65ZM196.12-8.59C195.68-7.98 195.16-7.67 194.56-7.67C194.32-7.67 194.12-7.69 193.99-7.72C193.80-7.38 193.70-6.96 193.70-6.47C193.70-6.34 193.72-6.13 193.75-5.85C194.20-5.68 194.79-5.59 195.52-5.59C197.58-5.59 199.19-6.19 200.36-7.38C201.52-8.58 202.10-10.18 202.10-12.19C202.10-13.93 201.58-15.27 200.54-16.21C199.50-17.16 197.70-17.63 195.13-17.63C194.47-17.63 193.88-17.62 193.36-17.60L190.01-17.58C188.83-17.58 187.42-17.60 185.77-17.65C185.77-16.93 185.85-16.25 186.00-15.63C186.52-15.56 186.90-15.45 187.12-15.30C187.35-15.15 187.50-14.90 187.58-14.53C187.66-14.17 187.69-13.58 187.69-12.77L187.69-4.86C187.69-4.05 187.65-3.45 187.55-3.06C187.46-2.67 187.29-2.39 187.06-2.24C186.82-2.08 186.45-1.98 185.95-1.95C185.83-1.48 185.77-0.81 185.77 0.08C186.97 0.03 188.69 0 190.94 0C193.30 0 194.97 0.03 195.96 0.08C195.96-0.84 195.88-1.52 195.73-1.95C194.64-2.02 193.89-2.28 193.49-2.74C193.09-3.20 192.89-4.00 192.89-5.12L192.89-15.39C193.21-15.51 193.54-15.57 193.91-15.57C194.86-15.57 195.58-15.20 196.05-14.46C196.53-13.71 196.77-12.70 196.77-11.41C196.77-10.15 196.55-9.21 196.12-8.59ZM208.10-0.90C209.46-0.14 211.05 0.23 212.89 0.23C214.69 0.23 216.27-0.16 217.63-0.95C218.99-1.74 220.04-2.85 220.78-4.28C221.52-5.71 221.88-7.35 221.88-9.20C221.88-10.92 221.51-12.43 220.77-13.73C220.02-15.03 218.97-16.03 217.62-16.74C216.27-17.45 214.69-17.81 212.89-17.81C211.14-17.81 209.59-17.45 208.23-16.72C206.88-15.99 205.82-14.95 205.06-13.61C204.30-12.27 203.92-10.69 203.92-8.87C203.92-7.06 204.28-5.47 205.00-4.10C205.72-2.72 206.75-1.65 208.10-0.90ZM215.67-3.64C215.08-2.41 214.26-1.79 213.20-1.79C211.90-1.79 210.92-2.52 210.25-3.97C209.58-5.41 209.25-7.25 209.25-9.49C209.25-11.54 209.53-13.11 210.11-14.21C210.68-15.31 211.49-15.86 212.55-15.86C213.36-15.86 214.08-15.54 214.68-14.90C215.29-14.26 215.75-13.39 216.07-12.30C216.39-11.21 216.55-9.99 216.55-8.66C216.55-6.54 216.26-4.87 215.67-3.64ZM240.07-2.41C239.82-2.62 239.52-3.07 239.17-3.74C238.72-4.66 238.36-5.35 238.10-5.80C237.83-6.25 237.56-6.60 237.29-6.84C237.02-7.08 236.68-7.28 236.26-7.44C237.37-7.73 238.26-8.34 238.91-9.26C239.57-10.17 239.90-11.36 239.90-12.82C239.90-13.74 239.67-14.56 239.20-15.30C238.73-16.04 238.01-16.62 237.04-17.06C236.07-17.49 234.87-17.71 233.43-17.71C233.08-17.71 231.84-17.68 229.71-17.63L228.05-17.58C226.45-17.58 224.96-17.61 223.57-17.68C223.57-17.42 223.59-17.08 223.63-16.65C223.66-16.23 223.70-15.90 223.76-15.68C224.28-15.61 224.65-15.50 224.89-15.35C225.12-15.21 225.28-14.95 225.37-14.57C225.45-14.20 225.50-13.62 225.50-12.82L225.50-4.86C225.50-4.05 225.45-3.45 225.36-3.06C225.26-2.67 225.09-2.39 224.86-2.24C224.63-2.08 224.27-1.98 223.78-1.95C223.64-1.43 223.57-0.75 223.57 0.08C224.77 0.03 226.11 0 227.60 0C229.65 0 231.17 0.03 232.15 0.08C232.15-0.93 232.09-1.60 231.97-1.95C231.63-1.97 231.37-2.05 231.19-2.18C231.02-2.32 230.89-2.61 230.81-3.06C230.74-3.50 230.70-4.19 230.70-5.12L230.70-6.76C230.92-6.74 231.24-6.73 231.66-6.73C232.06-6.47 232.39-6.13 232.65-5.71C232.91-5.28 233.20-4.63 233.53-3.74L233.87-2.83C234.51-1.19 234.92-0.16 235.09 0.23C236.13 0.08 238.07 0 240.92 0C241.11-0.66 241.20-1.33 241.20-2.03C240.70-2.06 240.32-2.19 240.07-2.41ZM233.58-9.66C232.99-9.06 232.29-8.76 231.48-8.76C231.30-8.76 231.04-8.80 230.70-8.87L230.70-15.55C231.04-15.67 231.41-15.73 231.79-15.73C232.60-15.73 233.25-15.42 233.74-14.79C234.23-14.17 234.47-13.30 234.47-12.19C234.47-11.10 234.17-10.26 233.58-9.66ZM253.34-15.63L253.86-15.63C254.73-15.63 255.38-15.37 255.80-14.86C256.23-14.35 256.56-13.49 256.80-12.30C257.93-12.30 258.83-12.44 259.51-12.71C259.32-13.49 259.16-14.33 259.05-15.22C258.94-16.12 258.88-16.93 258.88-17.65C256.72-17.60 254.05-17.58 250.90-17.58C246.93-17.58 244.22-17.60 242.76-17.65C242.76-16.94 242.70-16.12 242.58-15.17C242.46-14.23 242.30-13.40 242.11-12.69C242.67-12.43 243.56-12.30 244.79-12.30C245.08-13.48 245.48-14.33 245.97-14.85C246.47-15.37 247.17-15.63 248.09-15.63L248.14-15.63L248.14-4.86C248.14-4.05 248.07-3.45 247.91-3.06C247.75-2.67 247.49-2.39 247.10-2.24C246.72-2.08 246.15-1.98 245.39-1.95C245.30-1.69 245.23-1.36 245.17-0.96C245.11-0.56 245.08-0.22 245.08 0.08C246.22 0.03 248.22 0 251.08 0C253.49 0 255.18 0.03 256.15 0.08C256.15-0.82 256.07-1.50 255.89-1.95C255.15-1.98 254.60-2.08 254.25-2.24C253.91-2.39 253.67-2.66 253.54-3.04C253.41-3.42 253.34-4.03 253.34-4.86ZM278.54 0.08C278.54-0.81 278.47-1.48 278.33-1.95C278.05-1.98 277.82-2.08 277.64-2.22C277.46-2.37 277.25-2.66 277.00-3.08C276.76-3.51 276.43-4.17 276.02-5.07L270.24-17.73C269.88-17.73 269.54-17.72 269.22-17.71C268.90-17.69 268.58-17.65 268.27-17.58L262.76-4.58C262.32-3.59 261.97-2.93 261.70-2.59C261.43-2.25 261.09-2.04 260.68-1.95C260.50-1.41 260.42-0.74 260.42 0.08C260.94 0.03 261.77 0 262.91 0C264.35 0 265.36 0.03 265.95 0.08C265.95-0.68 265.88-1.36 265.75-1.95C265.36-2.02 265.08-2.18 264.90-2.42C264.72-2.66 264.63-2.95 264.63-3.28C264.63-3.50 264.67-3.73 264.76-3.95L264.81-4.06C266.47-4.23 268.44-4.32 270.71-4.32L270.89-3.93C271.08-3.49 271.18-3.15 271.18-2.91C271.18-2.67 271.09-2.47 270.92-2.31C270.75-2.16 270.47-2.04 270.09-1.95C269.95-1.40 269.88-0.72 269.88 0.08C270.54 0.03 272.06 0 274.46 0C276.48 0 277.84 0.03 278.54 0.08ZM269.98-6.01L265.56-6.01L266.42-8.22C266.94-9.48 267.36-10.68 267.67-11.80C267.98-10.68 268.42-9.48 269.00-8.22ZM291.26-2.77C290.75-2.22 290.06-1.95 289.17-1.95L288.73-1.95C288.19-1.95 287.78-2.04 287.50-2.21C287.21-2.38 287.01-2.69 286.88-3.12C286.76-3.55 286.70-4.18 286.70-4.99L286.70-12.77C286.70-13.58 286.75-14.17 286.83-14.55C286.92-14.92 287.07-15.18 287.30-15.33C287.53-15.47 287.89-15.57 288.39-15.63C288.50-15.87 288.56-16.15 288.59-16.46C288.61-16.77 288.63-17.17 288.63-17.65C287.59-17.60 286.08-17.58 284.10-17.58C282.73-17.58 281.22-17.60 279.58-17.65C279.58-16.79 279.64-16.11 279.76-15.63C280.28-15.56 280.66-15.44 280.89-15.29C281.13-15.13 281.29-14.87 281.37-14.51C281.46-14.14 281.50-13.56 281.50-12.77L281.50-4.86C281.50-4.05 281.45-3.45 281.36-3.06C281.26-2.67 281.10-2.39 280.87-2.24C280.63-2.08 280.27-1.98 279.79-1.95C279.65-1.43 279.58-0.75 279.58 0.08C280.58 0.06 281.87 0.04 283.43 0.03C284.99 0.01 286.38 0 287.61 0C290.09 0 292.35 0.02 294.40 0.05C294.54-1.85 294.81-3.41 295.20-4.60C294.98-4.81 294.62-5.00 294.14-5.16C293.65-5.33 293.12-5.43 292.55-5.49C292.21-4.22 291.78-3.32 291.26-2.77ZM313.85 0.08C313.85-0.81 313.78-1.48 313.64-1.95C313.36-1.98 313.13-2.08 312.95-2.22C312.77-2.37 312.55-2.66 312.31-3.08C312.07-3.51 311.74-4.17 311.32-5.07L305.55-17.73C305.19-17.73 304.85-17.72 304.52-17.71C304.20-17.69 303.89-17.65 303.58-17.58L298.06-4.58C297.63-3.59 297.28-2.93 297.01-2.59C296.74-2.25 296.40-2.04 295.98-1.95C295.81-1.41 295.72-0.74 295.72 0.08C296.24 0.03 297.08 0 298.22 0C299.66 0 300.67 0.03 301.26 0.08C301.26-0.68 301.19-1.36 301.05-1.95C300.67-2.02 300.39-2.18 300.21-2.42C300.03-2.66 299.94-2.95 299.94-3.28C299.94-3.50 299.98-3.73 300.07-3.95L300.12-4.06C301.78-4.23 303.75-4.32 306.02-4.32L306.20-3.93C306.39-3.49 306.49-3.15 306.49-2.91C306.49-2.67 306.40-2.47 306.23-2.31C306.05-2.16 305.78-2.04 305.40-1.95C305.26-1.40 305.19-0.72 305.19 0.08C305.85 0.03 307.37 0 309.76 0C311.79 0 313.15 0.03 313.85 0.08ZM305.29-6.01L300.87-6.01L301.73-8.22C302.25-9.48 302.67-10.68 302.98-11.80C303.29-10.68 303.73-9.48 304.30-8.22ZM314.83-1.25C316.79-0.26 318.92 0.23 321.23 0.23C323.48 0.23 325.22-0.24 326.43-1.18C327.64-2.13 328.25-3.45 328.25-5.15C328.25-6.31 327.98-7.29 327.43-8.09C326.88-8.88 326.23-9.52 325.47-9.98C324.71-10.45 323.73-10.95 322.56-11.47C321.43-11.95 320.59-12.39 320.05-12.78C319.50-13.17 319.23-13.65 319.23-14.22C319.23-14.72 319.41-15.10 319.79-15.35C320.16-15.60 320.63-15.73 321.20-15.73C321.98-15.73 322.61-15.47 323.09-14.94C323.57-14.41 323.91-13.48 324.12-12.14C324.65-12.14 325.20-12.19 325.77-12.29C326.33-12.38 326.78-12.53 327.11-12.74C326.98-13.49 326.92-14.79 326.92-16.67C326.42-17.00 325.65-17.27 324.61-17.49C323.57-17.70 322.56-17.81 321.57-17.81C319.71-17.81 318.19-17.37 317.00-16.50C315.82-15.62 315.22-14.27 315.22-12.43C315.22-11.23 315.49-10.23 316.03-9.41C316.57-8.60 317.20-7.96 317.94-7.49C318.68-7.02 319.60-6.53 320.71-6.03C321.72-5.56 322.45-5.17 322.91-4.85C323.37-4.53 323.60-4.13 323.60-3.64C323.60-3.15 323.39-2.74 322.97-2.41C322.56-2.07 321.93-1.90 321.10-1.90C320.42-1.90 319.91-2.01 319.57-2.24C319.22-2.46 318.96-2.86 318.79-3.43C318.61-4.00 318.48-4.85 318.40-5.98C317.06-5.98 316.00-5.87 315.20-5.64C315.20-3.80 315.08-2.34 314.83-1.25Z"></path></g></g></svg>